<?xml version="1.0" encoding="utf-8"?>
<!-- Generator: Adobe Illustrator 24.0.1, SVG Export Plug-In . SVG Version: 6.00 Build 0)  -->
<svg version="1.1" id="Layer_1" xmlns="http://www.w3.org/2000/svg" xmlns:xlink="http://www.w3.org/1999/xlink" x="0px" y="0px"
	 viewBox="0 0 313 177.7" style="enable-background:new 0 0 313 177.7;" xml:space="preserve">
<style type="text/css">
	.st0{fill:#FFFFFF;}
</style>
<title>Asset 1</title>
<g id="Layer_2_1_">
	<g id="LOGO">
		<g id="LOGO-2">
			<path class="st0" d="M0,3.7h14.9v53.6h29.3v12.4H0V3.7z"/>
			<path class="st0" d="M67.6,67.7c-3.9-2.2-7.2-5.4-9.4-9.2c-2.4-4.3-3.7-9.3-3.5-14.2c-0.1-5,1.1-9.9,3.5-14.3
				c2.2-3.9,5.5-7.1,9.4-9.3c7.9-4.3,17.4-4.3,25.3,0c3.9,2.2,7.2,5.4,9.4,9.3c2.4,4.4,3.7,9.3,3.5,14.3c0.1,5-1.1,9.9-3.5,14.2
				c-2.2,3.9-5.5,7.1-9.4,9.2C85,72,75.4,72,67.6,67.7z M87.9,55c1.8-2.6,2.6-6.2,2.6-10.9s-0.9-8.2-2.6-10.9
				c-1.7-2.6-4.6-4.1-7.7-4c-3.1-0.1-6,1.4-7.7,4c-1.7,2.7-2.6,6.3-2.6,10.9s0.9,8.2,2.6,10.8c1.7,2.6,4.6,4.1,7.7,4
				C83.3,59.2,86.2,57.7,87.9,55z"/>
			<path class="st0" d="M129.2,67.7c-3.9-2.2-7.2-5.4-9.4-9.2c-2.4-4.3-3.7-9.3-3.5-14.2c-0.1-5,1.1-9.9,3.5-14.3
				c2.2-3.9,5.5-7.1,9.4-9.3c7.9-4.3,17.4-4.3,25.3,0c3.9,2.2,7.2,5.4,9.4,9.3c2.4,4.4,3.7,9.3,3.5,14.3c0.1,5-1.1,9.9-3.5,14.2
				c-2.2,3.9-5.5,7.1-9.4,9.2C146.6,72,137.1,72,129.2,67.7z M149.6,55c1.8-2.6,2.6-6.2,2.6-10.8s-0.9-8.2-2.6-10.9
				c-3-4.2-8.8-5.3-13.1-2.3c-0.9,0.6-1.7,1.4-2.3,2.3c-1.8,2.7-2.6,6.3-2.6,10.9s0.9,8.2,2.6,10.8c3,4.2,8.9,5.2,13.2,2.2
				C148.2,56.6,149,55.9,149.6,55z"/>
			<path class="st0" d="M178.5,18.7h12.1l1.1,5.2h0.3c2.1-1.9,4.6-3.5,7.2-4.7c2.4-1.2,5.1-1.8,7.8-1.8c5.8-0.2,11.3,2.4,14.7,7.1
				c3.6,4.7,5.4,11,5.4,19c0.1,5-0.9,10.1-3,14.6c-1.8,3.8-4.5,7.1-8,9.6c-3.2,2.2-6.9,3.3-10.7,3.3c-2.3,0-4.5-0.5-6.6-1.4
				c-2.2-1-4.3-2.4-6-4.2l0.5,8.4v16.4h-14.8V18.7z M209.1,55c1.8-2.6,2.7-6.4,2.7-11.5c0-9.5-3.1-14.2-9.2-14.2
				c-3.1,0-6.2,1.7-9.3,5v21c2.3,2.2,5.4,3.5,8.6,3.5C204.9,58.9,207.6,57.5,209.1,55z"/>
			<path class="st0" d="M236.1,32.9c7.1-3.1,10.9-7.8,11.3-13.9c-0.6,0.2-1.3,0.3-2,0.3c-2.5,0.1-4.9-0.8-6.7-2.5
				c-1.7-1.8-2.7-4.2-2.6-6.6c-0.1-2.7,0.9-5.3,2.7-7.3c1.8-1.9,4.4-2.9,7-2.8c3.4-0.2,6.7,1.4,8.8,4.2c2,2.8,3,6.7,3,11.7
				c0.1,5.2-1.5,10.2-4.4,14.5c-3,4.2-7.4,7.6-13.1,10.2L236.1,32.9z"/>
			<path class="st0" d="M275.4,68.7c-4.1-1.3-8-3.2-11.6-5.6l6.7-9.2c2.8,1.9,5.8,3.4,9,4.5c3,1,6.1,1.6,9.2,1.6
				c6.4,0,9.6-1.5,9.6-4.5c0-1.5-1.1-2.7-3.2-3.8c-3.3-1.5-6.8-2.6-10.3-3.5c-11.9-3.4-17.9-8.4-17.9-14.9c0-3,1-5.9,2.8-8.3
				c2.1-2.6,4.9-4.5,8-5.6c3.9-1.4,8.1-2.1,12.3-2c7.2,0,14.4,2.3,21.6,7l-6.7,8.8c-5.2-3.2-10.1-4.8-14.7-4.8c-3,0-5.2,0.4-6.6,1
				c-1.3,0.5-2.1,1.8-2.1,3.2c0,1.5,1,2.6,3.1,3.5c3.2,1.3,6.4,2.3,9.8,3.2c5.8,1.6,10.3,3.5,13.6,5.8c3.2,2.1,5,5.7,4.9,9.5
				c0,3-1,6-2.9,8.4c-2.2,2.7-5.1,4.7-8.5,5.8c-4.3,1.5-8.8,2.2-13.4,2.1C283.9,70.9,279.5,70.1,275.4,68.7z"/>
			<path class="st0" d="M0,110.5h14.9v53.6h29.3v12.4H0V110.5z"/>
			<path class="st0" d="M55,164.6h17.2V137H55v-11.5h32.1v39.1h17.2v11.9H55V164.6z M71.7,116.8c-1.9-1.9-2.9-4.4-2.8-7.1
				c-0.1-2.7,0.9-5.4,2.8-7.3c4.1-3.8,10.5-3.8,14.6,0c1.9,2,2.9,4.6,2.8,7.3c0.1,2.7-0.9,5.2-2.8,7.1c-2,1.8-4.6,2.8-7.3,2.7
				C76.3,119.6,73.7,118.6,71.7,116.8L71.7,116.8z"/>
			<path class="st0" d="M126.5,175.5c-4.1-1.3-8-3.2-11.6-5.6l6.7-9.2c2.8,1.9,5.8,3.4,9,4.6c2.9,1,6,1.6,9.1,1.6
				c6.4,0,9.6-1.5,9.6-4.5c0-1.5-1.1-2.7-3.2-3.8c-3.3-1.5-6.7-2.6-10.2-3.5c-11.9-3.4-17.9-8.4-17.9-14.9c0-3,1-5.9,2.8-8.3
				c2.1-2.6,4.9-4.5,8-5.6c3.9-1.4,8.1-2.1,12.3-2c7.2,0,14.4,2.3,21.6,7l-6.7,8.8c-5.2-3.2-10.1-4.8-14.7-4.8c-3,0-5.2,0.3-6.6,1.1
				c-1.3,0.5-2.1,1.8-2.1,3.1c0,1.5,1,2.7,3.1,3.6c3.2,1.3,6.4,2.3,9.8,3.1c5.8,1.6,10.3,3.6,13.6,5.9c3.2,2.1,5,5.7,4.9,9.4
				c0,3-1,6-2.9,8.4c-2.2,2.7-5.1,4.7-8.4,5.8c-4.3,1.5-8.8,2.2-13.4,2.1C135,177.7,130.7,176.9,126.5,175.5z"/>
			<path class="st0" d="M187.8,155.4V137h-12.6v-11.5h13.4v-15l14.2-6v21h21.2V137h-21.2v18.3c0,3.9,0.8,6.7,2.5,8.4
				c1.7,1.7,4.4,2.6,8,2.6c3.4,0,6.8-0.7,10-1.9l2.6,10.6c-5.3,1.8-10.8,2.7-16.4,2.8C195,177.7,187.8,170.3,187.8,155.4z"/>
		</g>
	</g>
</g>
</svg>
