<svg xmlns="http://www.w3.org/2000/svg" viewBox="0 0 313.05 177.69"><title>Asset 1</title><g id="Layer_2" data-name="Layer 2"><g id="LOGO"><g id="LOGO-2" data-name="LOGO"><path d="M0,3.7H14.87V57.3H44.2V69.7H0Z"/><path d="M67.56,67.7a24.22,24.22,0,0,1-9.41-9.25A27.69,27.69,0,0,1,54.61,44.2a28,28,0,0,1,3.54-14.3,24.09,24.09,0,0,1,9.41-9.3,26.56,26.56,0,0,1,25.28,0,24.09,24.09,0,0,1,9.41,9.3,28,28,0,0,1,3.54,14.3,27.69,27.69,0,0,1-3.54,14.25,24.22,24.22,0,0,1-9.41,9.25,26.56,26.56,0,0,1-25.28,0ZM87.89,55.05q2.63-3.94,2.63-10.85T87.89,33.3a8.63,8.63,0,0,0-7.69-4,8.63,8.63,0,0,0-7.69,4q-2.62,4-2.62,10.9t2.62,10.85a8.68,8.68,0,0,0,7.69,4A8.68,8.68,0,0,0,87.89,55.05Z"/><path d="M129.24,67.7a24.22,24.22,0,0,1-9.41-9.25,27.69,27.69,0,0,1-3.54-14.25,28,28,0,0,1,3.54-14.3,24.09,24.09,0,0,1,9.41-9.3,26.56,26.56,0,0,1,25.28,0,24.09,24.09,0,0,1,9.41,9.3,28,28,0,0,1,3.54,14.3,27.69,27.69,0,0,1-3.54,14.25,24.22,24.22,0,0,1-9.41,9.25,26.56,26.56,0,0,1-25.28,0Zm20.33-12.65q2.63-3.94,2.63-10.85t-2.63-10.9a9.38,9.38,0,0,0-15.37,0q-2.64,4-2.63,10.9t2.63,10.85a9.45,9.45,0,0,0,15.37,0Z"/><path d="M178.5,18.7h12.14l1.11,5.2h.31a28.26,28.26,0,0,1,7.18-4.7A18.64,18.64,0,0,1,207,17.4a17.56,17.56,0,0,1,14.71,7.05q5.41,7.05,5.41,19a33.24,33.24,0,0,1-3,14.65,23.47,23.47,0,0,1-8,9.55,19,19,0,0,1-10.72,3.3,15.9,15.9,0,0,1-6.58-1.45,20.24,20.24,0,0,1-6-4.15l.5,8.4V90.2H178.5Zm30.65,36.35q2.73-3.86,2.73-11.45,0-14.2-9.2-14.2-4.67,0-9.31,5v21a12.47,12.47,0,0,0,8.6,3.5A8.41,8.41,0,0,0,209.15,55.05Z"/><path d="M236.14,32.9q10.62-4.69,11.33-13.9a7.11,7.11,0,0,1-2,.3,9.16,9.16,0,0,1-6.73-2.55,8.94,8.94,0,0,1-2.58-6.65,10,10,0,0,1,2.73-7.3,9.32,9.32,0,0,1,7-2.8,10.19,10.19,0,0,1,8.75,4.25Q257.67,8.5,257.68,16a24.25,24.25,0,0,1-4.45,14.45q-4.46,6.25-13.15,10.25Z"/><path d="M275.38,68.7a48.26,48.26,0,0,1-11.58-5.6l6.67-9.2a43.35,43.35,0,0,0,9,4.55A27.49,27.49,0,0,0,288.68,60q9.6,0,9.6-4.5,0-2.2-3.18-3.75a67.91,67.91,0,0,0-10.27-3.55q-17.9-5.1-17.9-14.9a13.1,13.1,0,0,1,2.83-8.3,18.25,18.25,0,0,1,8-5.6,34.34,34.34,0,0,1,12.29-2q10.83,0,21.65,7l-6.68,8.8q-7.79-4.8-14.66-4.8-4.56,0-6.63,1.05a3.37,3.37,0,0,0-2.07,3.15q0,2.2,3.08,3.55a75.91,75.91,0,0,0,9.76,3.15q8.7,2.4,13.61,5.85a10.94,10.94,0,0,1,4.9,9.45,13.33,13.33,0,0,1-2.88,8.4,18.76,18.76,0,0,1-8.45,5.8,37.87,37.87,0,0,1-13.35,2.1A40.37,40.37,0,0,1,275.38,68.7Z"/><path d="M0,110.49H14.87v53.6H44.2v12.4H0Z"/><path d="M55,164.59H72.22V137H55v-11.5H87.09v39.1h17.19v11.9H55Zm16.69-47.8a9.35,9.35,0,0,1-2.83-7.1,10,10,0,0,1,2.83-7.35,10.72,10.72,0,0,1,14.56,0,10,10,0,0,1,2.83,7.35,9.35,9.35,0,0,1-2.83,7.1,10.11,10.11,0,0,1-7.28,2.7A10.1,10.1,0,0,1,71.72,116.79Z"/><path d="M126.48,175.49a48.26,48.26,0,0,1-11.58-5.6l6.68-9.2a43.35,43.35,0,0,0,9,4.55,27.39,27.39,0,0,0,9.15,1.55q9.61,0,9.61-4.5,0-2.21-3.19-3.75A67.29,67.29,0,0,0,135.94,155q-17.91-5.1-17.9-14.9a13,13,0,0,1,2.83-8.3,18.2,18.2,0,0,1,8-5.6,34.3,34.3,0,0,1,12.29-2q10.81,0,21.64,7l-6.67,8.8q-7.8-4.8-14.67-4.8-4.55,0-6.62,1.05a3.36,3.36,0,0,0-2.08,3.15q0,2.21,3.09,3.55a75.37,75.37,0,0,0,9.76,3.15q8.7,2.4,13.6,5.85a11,11,0,0,1,4.91,9.45,13.34,13.34,0,0,1-2.89,8.4,18.72,18.72,0,0,1-8.44,5.8,37.87,37.87,0,0,1-13.35,2.1A40.38,40.38,0,0,1,126.48,175.49Z"/><path d="M187.82,155.39V137H175.18v-11.5h13.35v-15l14.16-6v21h21.24V137H202.69v18.3q0,5.81,2.53,8.35c1.68,1.7,4.35,2.55,8,2.55a28.24,28.24,0,0,0,10-1.9l2.63,10.6a55.21,55.21,0,0,1-16.39,2.8Q187.82,177.69,187.82,155.39Z"/></g></g></g></svg>